<mxfile host="Electron" modified="2024-07-16T08:46:11.107Z" agent="Mozilla/5.0 (Windows NT 10.0; Win64; x64) AppleWebKit/537.36 (KHTML, like Gecko) draw.io/22.0.3 Chrome/114.0.5735.289 Electron/25.8.4 Safari/537.36" etag="fwUvW5XWnl5bgicc51u1" version="22.0.3" type="device">
  <diagram name="Page-1" id="MjcO_fdyMeraVDT6ez1X">
    <mxGraphModel dx="1007" dy="530" grid="1" gridSize="10" guides="1" tooltips="1" connect="1" arrows="1" fold="1" page="1" pageScale="1" pageWidth="827" pageHeight="1169" math="0" shadow="0">
      <root>
        <mxCell id="0" />
        <mxCell id="1" parent="0" />
        <mxCell id="39xkh_AdIYjaL_DMWoiO-8" value="" style="rounded=1;whiteSpace=wrap;html=1;" parent="1" vertex="1">
          <mxGeometry x="200" y="180" width="330" height="290" as="geometry" />
        </mxCell>
        <mxCell id="39xkh_AdIYjaL_DMWoiO-2" value="Vue Framework" style="rounded=1;whiteSpace=wrap;html=1;fillColor=#97D077;" parent="1" vertex="1">
          <mxGeometry x="230" y="330" width="270" height="60" as="geometry" />
        </mxCell>
        <mxCell id="39xkh_AdIYjaL_DMWoiO-3" value="HTML" style="rounded=1;whiteSpace=wrap;html=1;" parent="1" vertex="1">
          <mxGeometry x="230" y="410" width="80" height="40" as="geometry" />
        </mxCell>
        <mxCell id="39xkh_AdIYjaL_DMWoiO-4" value="JavaScript" style="rounded=1;whiteSpace=wrap;html=1;" parent="1" vertex="1">
          <mxGeometry x="320" y="410" width="80" height="40" as="geometry" />
        </mxCell>
        <mxCell id="39xkh_AdIYjaL_DMWoiO-5" value="CSS" style="rounded=1;whiteSpace=wrap;html=1;" parent="1" vertex="1">
          <mxGeometry x="413.5" y="410" width="80" height="40" as="geometry" />
        </mxCell>
        <mxCell id="39xkh_AdIYjaL_DMWoiO-6" value="Pinia" style="rounded=1;whiteSpace=wrap;html=1;fillColor=#FFD966;" parent="1" vertex="1">
          <mxGeometry x="370" y="270" width="130" height="40" as="geometry" />
        </mxCell>
        <mxCell id="39xkh_AdIYjaL_DMWoiO-7" value="PrimeVue" style="rounded=1;whiteSpace=wrap;html=1;fillColor=#A9C4EB;" parent="1" vertex="1">
          <mxGeometry x="230" y="270" width="130" height="40" as="geometry" />
        </mxCell>
        <mxCell id="39xkh_AdIYjaL_DMWoiO-9" value="Starship Prober" style="text;html=1;strokeColor=none;fillColor=none;align=center;verticalAlign=middle;whiteSpace=wrap;rounded=0;" parent="1" vertex="1">
          <mxGeometry x="275" y="200" width="180" height="40" as="geometry" />
        </mxCell>
      </root>
    </mxGraphModel>
  </diagram>
</mxfile>
